<?xml version="1.0" standalone="no"?><!DOCTYPE svg PUBLIC "-//W3C//DTD SVG 1.1//EN" "http://www.w3.org/Graphics/SVG/1.1/DTD/svg11.dtd"><svg t="1676267702580" class="icon" viewBox="0 0 1024 1024" version="1.1" xmlns="http://www.w3.org/2000/svg" p-id="6417" xmlns:xlink="http://www.w3.org/1999/xlink" width="200" height="200"><path d="M573.592576 513.252352l261.472256 261.472256c16.662528 16.662528 16.662528 43.677696 0 60.340224s-43.677696 16.662528-60.340224 0L513.252352 573.592576 251.78112 835.064832c-16.662528 16.662528-43.677696 16.662528-60.3392 0-16.662528-16.662528-16.662528-43.677696 0-60.340224l261.472256-261.472256L191.440896 251.78112c-16.662528-16.662528-16.662528-43.677696 0-60.3392 16.661504-16.662528 43.676672-16.662528 60.3392 0l261.472256 261.472256 261.472256-261.472256c16.662528-16.662528 43.677696-16.662528 60.340224 0 16.662528 16.661504 16.662528 43.676672 0 60.3392L573.592576 513.252352z" fill="#000000" p-id="6418"></path></svg>