<?xml version="1.0" standalone="no"?><!DOCTYPE svg PUBLIC "-//W3C//DTD SVG 1.1//EN" "http://www.w3.org/Graphics/SVG/1.1/DTD/svg11.dtd"><svg t="1676094209499" class="icon" viewBox="0 0 1024 1024" version="1.1" xmlns="http://www.w3.org/2000/svg" p-id="10587" width="200" height="200" xmlns:xlink="http://www.w3.org/1999/xlink"><path d="M512.001045 511.921621m-122.898811 0a122.898811 122.898811 0 1 0 245.797622 0 122.898811 122.898811 0 1 0-245.797622 0Z" fill="#000000" p-id="10588" data-spm-anchor-id="a313x.7781069.0.i16" class=""></path><path d="M512.001045 653.631474c-78.170332 0-141.709854-63.539521-141.709853-141.709853s63.539521-141.709854 141.709853-141.709854 141.709854 63.539521 141.709854 141.709854-63.539521 141.709854-141.709854 141.709853z m0-245.58861c-57.269174 0-103.878757 46.609583-103.878757 103.878757s46.609583 103.878757 103.878757 103.878757 103.878757-46.609583 103.878757-103.878757-46.609583-103.878757-103.878757-103.878757zM512.001045 287.025157c10.450579 0 19.020054-8.569475 19.020054-19.020054v-203.368271l42.22034 42.22034c3.762209 3.762209 8.569475 5.643313 13.376741 5.643313s9.614533-1.881104 13.376742-5.643313c7.315405-7.315405 7.315405-19.438077 0-26.753483l-74.617136-74.617135c-7.315405-7.315405-19.438077-7.315405-26.753482 0l-74.617136 74.617135c-7.315405 7.315405-7.315405 19.438077 0 26.753483s19.438077 7.315405 26.753483 0l42.22034-42.22034v203.368271c0 10.659591 8.569475 19.020054 19.020054 19.020054zM424.007168 943.739552l74.617136 74.617135c3.762209 3.762209 8.569475 5.643313 13.376741 5.643313 4.807266 0 9.614533-1.881104 13.376741-5.643313l74.617136-74.617135c7.315405-7.315405 7.315405-19.438077 0-26.753483s-19.438077-7.315405-26.753483 0l-42.22034 42.22034v-203.368271c0-10.450579-8.569475-19.020054-19.020054-19.020054s-19.020054 8.569475-19.020054 19.020054v203.368271l-42.22034-42.22034c-7.315405-7.315405-19.438077-7.315405-26.753483 0s-7.315405 19.229066 0 26.753483zM80.183114 599.915497c3.762209 3.762209 8.569475 5.643313 13.376741 5.643313 4.807266 0 9.614533-1.881104 13.376741-5.643313 7.315405-7.315405 7.315405-19.438077 0-26.753482l-42.220339-42.22034h203.36827c10.450579 0 19.020054-8.569475 19.020054-19.020054s-8.569475-19.020054-19.020054-19.020054h-203.36827l42.220339-42.22034c7.315405-7.315405 7.315405-19.438077 0-26.753483s-19.438077-7.315405-26.753482 0l-74.617136 74.617135c-7.315405 7.315405-7.315405 19.438077 0 26.753483l74.617136 74.617135zM736.897509 511.921621c0 10.450579 8.569475 19.020054 19.020054 19.020054h203.368271l-42.22034 42.22034c-7.315405 7.315405-7.315405 19.438077 0 26.753482 3.762209 3.762209 8.569475 5.643313 13.376741 5.643313s9.614533-1.881104 13.376741-5.643313l74.617136-74.617135c7.315405-7.315405 7.315405-19.438077 0-26.753483l-74.617136-74.617135c-7.315405-7.315405-19.438077-7.315405-26.753482 0s-7.315405 19.438077 0 26.753483l42.22034 42.22034h-203.368271c-10.659591 0-19.020054 8.569475-19.020054 19.020054zM287.940628 163.2903c0-10.450579-8.569475-19.020054-19.020054-19.020055h-105.55085c-10.450579 0-19.020054 8.569475-19.020054 19.020055v105.550849c0 10.450579 8.569475 19.020054 19.020054 19.020054s19.020054-8.569475 19.020054-19.020054v-59.777313l143.799969 143.79997c3.762209 3.762209 8.569475 5.643313 13.376742 5.643312s9.614533-1.881104 13.376741-5.643312c7.315405-7.315405 7.315405-19.438077 0-26.753483l-143.799969-143.799969h59.777313c10.450579 0 19.020054-8.569475 19.020054-19.020054zM671.05886 697.732918l143.799969 143.79997h-59.777312c-10.450579 0-19.020054 8.569475-19.020055 19.020054s8.569475 19.020054 19.020055 19.020054h105.550849c10.450579 0 19.020054-8.569475 19.020054-19.020054v-105.55085c0-10.450579-8.569475-19.020054-19.020054-19.020054s-19.020054 8.569475-19.020054 19.020054v59.777313l-143.799969-143.799969c-7.315405-7.315405-19.438077-7.315405-26.753483 0-7.524417 7.315405-7.524417 19.229066 0 26.753482zM163.369724 735.982038c-10.450579 0-19.020054 8.569475-19.020054 19.020054v105.55085c0 10.450579 8.569475 19.020054 19.020054 19.020054h105.55085c10.450579 0 19.020054-8.569475 19.020054-19.020054s-8.569475-19.020054-19.020054-19.020054h-59.777313l143.799969-143.79997c7.315405-7.315405 7.315405-19.438077 0-26.753482s-19.438077-7.315405-26.753483 0l-143.799969 143.799969v-59.777313c0-10.450579-8.569475-19.020054-19.020054-19.020054zM671.05886 352.863806c3.762209 3.762209 8.569475 5.643313 13.376741 5.643312s9.614533-1.881104 13.376742-5.643312l143.799969-143.79997v59.777313c0 10.450579 8.569475 19.020054 19.020054 19.020054s19.020054-8.569475 19.020054-19.020054v-105.550849c0-10.450579-8.569475-19.020054-19.020054-19.020055h-105.550849c-10.450579 0-19.020054 8.569475-19.020055 19.020055s8.569475 19.020054 19.020055 19.020054h59.777312l-143.799969 143.799969c-7.524417 7.524417-7.524417 19.438077 0 26.753483z" fill="#000000" p-id="10589" data-spm-anchor-id="a313x.7781069.0.i13" class="selected"></path></svg>