<?xml version="1.0" standalone="no"?><!DOCTYPE svg PUBLIC "-//W3C//DTD SVG 1.1//EN" "http://www.w3.org/Graphics/SVG/1.1/DTD/svg11.dtd"><svg t="1676183935498" class="icon" viewBox="0 0 1024 1024" version="1.1" xmlns="http://www.w3.org/2000/svg" p-id="11383" xmlns:xlink="http://www.w3.org/1999/xlink" width="200" height="200"><path d="M966.656 502.857143a34.157714 34.157714 0 1 0 46.445714-50.029714L535.259429 9.142857a34.157714 34.157714 0 0 0-46.518858 0L10.971429 452.754286a34.157714 34.157714 0 0 0 46.445714 50.029714L512 80.749714l454.656 422.107429zM580.242286 682.642286V921.6c0 18.870857 15.36 34.157714 34.157714 34.157714h238.957714a34.157714 34.157714 0 0 0 34.084572-34.157714V512a34.157714 34.157714 0 0 0-68.242286 0v375.442286H648.557714V648.557714A34.157714 34.157714 0 0 0 614.4 614.4H406.747429a34.157714 34.157714 0 0 0-34.084572 34.157714v238.884572H204.8V512a34.157714 34.157714 0 0 0-68.242286 0v409.6c0 18.870857 15.286857 34.157714 34.084572 34.157714h236.105143a34.157714 34.157714 0 0 0 34.157714-34.157714V682.642286h139.337143z m273.115428-546.084572v102.4a34.157714 34.157714 0 0 0 68.242286 0V102.4a34.157714 34.157714 0 0 0-34.157714-34.157714H716.8a34.157714 34.157714 0 0 0 0 68.315428h136.557714z" fill="#000000" p-id="11384"></path></svg>