<?xml version="1.0" standalone="no"?><!DOCTYPE svg PUBLIC "-//W3C//DTD SVG 1.1//EN" "http://www.w3.org/Graphics/SVG/1.1/DTD/svg11.dtd"><svg t="1676094310804" class="icon" viewBox="0 0 1024 1024" version="1.1" xmlns="http://www.w3.org/2000/svg" p-id="15775" xmlns:xlink="http://www.w3.org/1999/xlink" width="200" height="200"><path d="M512 85.333333C276.736 85.333333 85.333333 276.736 85.333333 512s191.402667 426.666667 426.666667 426.666667 426.666667-191.402667 426.666667-426.666667S747.264 85.333333 512 85.333333z m338.389333 384H554.666667V173.610667A341.674667 341.674667 0 0 1 850.389333 469.333333zM170.666667 512c0-173.738667 130.602667-317.269333 298.666666-338.389333V512a42.496 42.496 0 0 0 4.736 18.688c0.64 1.28 0.938667 2.688 1.749334 3.968l179.285333 286.848A339.157333 339.157333 0 0 1 512 853.333333c-188.202667 0-341.333333-153.130667-341.333333-341.333333z m556.885333 264.362667L589.013333 554.666667h261.376a340.992 340.992 0 0 1-122.837333 221.696z" p-id="15776" fill="#000000"></path></svg>