<?xml version="1.0" standalone="no"?><!DOCTYPE svg PUBLIC "-//W3C//DTD SVG 1.1//EN" "http://www.w3.org/Graphics/SVG/1.1/DTD/svg11.dtd"><svg t="1687024517258" class="icon" viewBox="0 0 1024 1024" version="1.1" xmlns="http://www.w3.org/2000/svg" p-id="1955" xmlns:xlink="http://www.w3.org/1999/xlink" width="200" height="200"><path d="M853.333333 371.2V170.666667h-200.533333L512 29.866667 371.2 170.666667H170.666667v200.533333L29.866667 512 170.666667 652.8V853.333333h200.533333l140.8 140.8 140.8-140.8H853.333333v-200.533333l140.8-140.8-140.8-140.8zM768 618.666667v149.333333h-149.333333l-106.666667 106.666667-106.666667-106.666667h-149.333333v-149.333333l-106.666667-106.666667 106.666667-106.666667v-149.333333h149.333333l106.666667-106.666667 106.666667 106.666667h149.333333v149.333333l106.666667 106.666667-106.666667 106.666667z" p-id="1956"></path><path d="M512 339.2c-93.866667 0-170.666667 76.8-170.666667 170.666667s76.8 170.666667 170.666667 170.666666 170.666667-76.8 170.666667-170.666666-76.8-170.666667-170.666667-170.666667z m0 256c-46.933333 0-85.333333-38.4-85.333333-85.333333s38.4-85.333333 85.333333-85.333334 85.333333 38.4 85.333333 85.333334-38.4 85.333333-85.333333 85.333333z" p-id="1957"></path></svg>