<?xml version="1.0" standalone="no"?><!DOCTYPE svg PUBLIC "-//W3C//DTD SVG 1.1//EN" "http://www.w3.org/Graphics/SVG/1.1/DTD/svg11.dtd"><svg t="1676094273110" class="icon" viewBox="0 0 1024 1024" version="1.1" xmlns="http://www.w3.org/2000/svg" p-id="13731" xmlns:xlink="http://www.w3.org/1999/xlink" width="200" height="200"><path d="M775.68 896H205.653333A120.277333 120.277333 0 0 1 85.333333 775.68V205.653333A120.32 120.32 0 0 1 205.653333 85.333333h571.605334a120.277333 120.277333 0 0 1 120.32 120.32v571.605334A122.368 122.368 0 0 1 775.68 896zM205.653333 180.352a25.002667 25.002667 0 0 0-25.301333 25.301333v571.605334c0 14.250667 11.093333 25.344 25.301333 25.344h571.605334c14.250667 0 25.344-11.093333 25.344-25.344V205.653333a25.002667 25.002667 0 0 0-25.344-25.301333H205.653333z" fill="#000000" p-id="13732"></path></svg>