<svg t="1662532745388" class="icon" viewBox="0 0 1024 1024" version="1.1" xmlns="http://www.w3.org/2000/svg" p-id="3198" width="200" height="200"><path d="M0 64l0 896 1024 0 0-896-1024 0zM384 640l0-192 256 0 0 192-256 0zM640 704l0 192-256 0 0-192 256 0zM640 192l0 192-256 0 0-192 256 0zM320 192l0 192-256 0 0-192 256 0zM64 448l256 0 0 192-256 0 0-192zM704 448l256 0 0 192-256 0 0-192zM704 384l0-192 256 0 0 192-256 0zM64 704l256 0 0 192-256 0 0-192zM704 896l0-192 256 0 0 192-256 0z" p-id="3199"></path></svg>